<?xml version="1.0" encoding="UTF-8" standalone="no"?>
<!DOCTYPE svg PUBLIC "-//W3C//DTD SVG 1.1//EN"
 "http://www.w3.org/Graphics/SVG/1.1/DTD/svg11.dtd">
<!-- Generated by graphviz version 2.40.1 (20161225.0304)
 -->
<!-- Title: dependencies Pages: 1 -->
<svg width="3032pt" height="284pt"
 viewBox="0.00 0.00 3032.00 284.00" xmlns="http://www.w3.org/2000/svg" xmlns:xlink="http://www.w3.org/1999/xlink">
<g id="graph0" class="graph" transform="scale(1 1) rotate(0) translate(4 280)">
<title>dependencies</title>
<polygon fill="#ffffff" stroke="transparent" points="-4,4 -4,-280 3028,-280 3028,4 -4,4"/>
<text text-anchor="start" x="1491.0091" y="-42.4" font-family="sans-serif" font-weight="bold" font-size="14.00" fill="#000000">Legend</text>
<polygon fill="#ffffb3" stroke="transparent" points="1278,-10 1278,-30 1298,-30 1298,-10 1278,-10"/>
<text text-anchor="start" x="1301.629" y="-15.4" font-family="sans-serif" font-size="14.00" fill="#000000"> &#160;Declarations</text>
<polygon fill="#8dd3c7" stroke="transparent" points="1391,-10 1391,-30 1411,-30 1411,-10 1391,-10"/>
<text text-anchor="start" x="1414.7251" y="-15.4" font-family="sans-serif" font-size="14.00" fill="#000000"> &#160;Module</text>
<polygon fill="#80b1d3" stroke="transparent" points="1477,-10 1477,-30 1497,-30 1497,-10 1477,-10"/>
<text text-anchor="start" x="1500.7812" y="-15.4" font-family="sans-serif" font-size="14.00" fill="#000000"> &#160;Bootstrap</text>
<polygon fill="#fdb462" stroke="transparent" points="1574,-10 1574,-30 1594,-30 1594,-10 1574,-10"/>
<text text-anchor="start" x="1597.6732" y="-15.4" font-family="sans-serif" font-size="14.00" fill="#000000"> &#160;Providers</text>
<polygon fill="#fb8072" stroke="transparent" points="1670,-10 1670,-30 1690,-30 1690,-10 1670,-10"/>
<text text-anchor="start" x="1693.7258" y="-15.4" font-family="sans-serif" font-size="14.00" fill="#000000"> &#160;Exports</text>
<g id="clust1" class="cluster">
<title>cluster_AppModule</title>
<polygon fill="none" stroke="#000000" stroke-dasharray="1,5" points="8,-70 8,-268 3016,-268 3016,-70 8,-70"/>
</g>
<g id="clust2" class="cluster">
<title>cluster_AppModule_declarations</title>
<polygon fill="none" stroke="#000000" points="152,-78 152,-130 3008,-130 3008,-78 152,-78"/>
</g>
<g id="clust25" class="cluster">
<title>cluster_AppModule_bootstrap</title>
<polygon fill="none" stroke="#000000" points="1353,-208 1353,-260 1477,-260 1477,-208 1353,-208"/>
</g>
<g id="clust26" class="cluster">
<title>cluster_AppModule_providers</title>
<polygon fill="none" stroke="#000000" points="16,-78 16,-130 144,-130 144,-78 16,-78"/>
</g>
<!-- AppComponent -->
<g id="node1" class="node">
<title>AppComponent</title>
<polygon fill="#ffffb3" stroke="#000000" points="2999.9399,-122 2894.0601,-122 2894.0601,-86 2999.9399,-86 2999.9399,-122"/>
<text text-anchor="middle" x="2947" y="-99.8" font-family="Times,serif" font-size="14.00" fill="#000000">AppComponent</text>
</g>
<!-- AppModule -->
<g id="node21" class="node">
<title>AppModule</title>
<polygon fill="#8dd3c7" stroke="#000000" points="1456.6571,-187 1453.6571,-191 1432.6571,-191 1429.6571,-187 1373.3429,-187 1373.3429,-151 1456.6571,-151 1456.6571,-187"/>
<text text-anchor="middle" x="1415" y="-164.8" font-family="Times,serif" font-size="14.00" fill="#000000">AppModule</text>
</g>
<!-- AppComponent&#45;&gt;AppModule -->
<g id="edge1" class="edge">
<title>AppComponent&#45;&gt;AppModule</title>
<path fill="none" stroke="#000000" d="M2947,-122.1532C2947,-145.7566 2947,-184 2947,-184 2947,-184 1466.7718,-184 1466.7718,-184"/>
<polygon fill="#000000" stroke="#000000" points="1466.7719,-180.5001 1456.7718,-184 1466.7718,-187.5001 1466.7719,-180.5001"/>
</g>
<!-- HeaderComponent -->
<g id="node2" class="node">
<title>HeaderComponent</title>
<polygon fill="#ffffb3" stroke="#000000" points="2875.7437,-122 2754.2563,-122 2754.2563,-86 2875.7437,-86 2875.7437,-122"/>
<text text-anchor="middle" x="2815" y="-99.8" font-family="Times,serif" font-size="14.00" fill="#000000">HeaderComponent</text>
</g>
<!-- HeaderComponent&#45;&gt;AppModule -->
<g id="edge2" class="edge">
<title>HeaderComponent&#45;&gt;AppModule</title>
<path fill="none" stroke="#000000" d="M2815,-122.2479C2815,-145.0179 2815,-181 2815,-181 2815,-181 1466.8992,-181 1466.8992,-181"/>
<polygon fill="#000000" stroke="#000000" points="1466.8993,-177.5001 1456.8992,-181 1466.8992,-184.5001 1466.8993,-177.5001"/>
</g>
<!-- FooterComponent -->
<g id="node3" class="node">
<title>FooterComponent</title>
<polygon fill="#ffffb3" stroke="#000000" points="2735.8809,-122 2618.1191,-122 2618.1191,-86 2735.8809,-86 2735.8809,-122"/>
<text text-anchor="middle" x="2677" y="-99.8" font-family="Times,serif" font-size="14.00" fill="#000000">FooterComponent</text>
</g>
<!-- FooterComponent&#45;&gt;AppModule -->
<g id="edge3" class="edge">
<title>FooterComponent&#45;&gt;AppModule</title>
<path fill="none" stroke="#000000" d="M2677,-122.2921C2677,-144.2057 2677,-178 2677,-178 2677,-178 1466.989,-178 1466.989,-178"/>
<polygon fill="#000000" stroke="#000000" points="1466.989,-174.5001 1456.989,-178 1466.989,-181.5001 1466.989,-174.5001"/>
</g>
<!-- IndexContentComponent -->
<g id="node4" class="node">
<title>IndexContentComponent</title>
<polygon fill="#ffffb3" stroke="#000000" points="2599.5407,-122 2442.4593,-122 2442.4593,-86 2599.5407,-86 2599.5407,-122"/>
<text text-anchor="middle" x="2521" y="-99.8" font-family="Times,serif" font-size="14.00" fill="#000000">IndexContentComponent</text>
</g>
<!-- IndexContentComponent&#45;&gt;AppModule -->
<g id="edge4" class="edge">
<title>IndexContentComponent&#45;&gt;AppModule</title>
<path fill="none" stroke="#000000" d="M2521,-122.0267C2521,-142.7672 2521,-174 2521,-174 2521,-174 1466.6714,-174 1466.6714,-174"/>
<polygon fill="#000000" stroke="#000000" points="1466.6714,-170.5001 1456.6714,-174 1466.6713,-177.5001 1466.6714,-170.5001"/>
</g>
<!-- AboutComponent -->
<g id="node5" class="node">
<title>AboutComponent</title>
<polygon fill="#ffffb3" stroke="#000000" points="2424.3301,-122 2307.6699,-122 2307.6699,-86 2424.3301,-86 2424.3301,-122"/>
<text text-anchor="middle" x="2366" y="-99.8" font-family="Times,serif" font-size="14.00" fill="#000000">AboutComponent</text>
</g>
<!-- AboutComponent&#45;&gt;AppModule -->
<g id="edge5" class="edge">
<title>AboutComponent&#45;&gt;AppModule</title>
<path fill="none" stroke="#000000" d="M2366,-122.308C2366,-142.1455 2366,-171 2366,-171 2366,-171 1466.7821,-171 1466.7821,-171"/>
<polygon fill="#000000" stroke="#000000" points="1466.7821,-167.5001 1456.7821,-171 1466.782,-174.5001 1466.7821,-167.5001"/>
</g>
<!-- InstitutionsComponent -->
<g id="node6" class="node">
<title>InstitutionsComponent</title>
<polygon fill="#ffffb3" stroke="#000000" points="2290.3356,-122 2145.6644,-122 2145.6644,-86 2290.3356,-86 2290.3356,-122"/>
<text text-anchor="middle" x="2218" y="-99.8" font-family="Times,serif" font-size="14.00" fill="#000000">InstitutionsComponent</text>
</g>
<!-- InstitutionsComponent&#45;&gt;AppModule -->
<g id="edge6" class="edge">
<title>InstitutionsComponent&#45;&gt;AppModule</title>
<path fill="none" stroke="#000000" d="M2218,-122.1686C2218,-141.0898 2218,-168 2218,-168 2218,-168 1466.7616,-168 1466.7616,-168"/>
<polygon fill="#000000" stroke="#000000" points="1466.7616,-164.5001 1456.7616,-168 1466.7616,-171.5001 1466.7616,-164.5001"/>
</g>
<!-- CollectionsComponent -->
<g id="node7" class="node">
<title>CollectionsComponent</title>
<polygon fill="#ffffb3" stroke="#000000" points="2127.6052,-122 1982.3948,-122 1982.3948,-86 2127.6052,-86 2127.6052,-122"/>
<text text-anchor="middle" x="2055" y="-99.8" font-family="Times,serif" font-size="14.00" fill="#000000">CollectionsComponent</text>
</g>
<!-- CollectionsComponent&#45;&gt;AppModule -->
<g id="edge7" class="edge">
<title>CollectionsComponent&#45;&gt;AppModule</title>
<path fill="none" stroke="#000000" d="M2055,-122.302C2055,-140.2699 2055,-165 2055,-165 2055,-165 1466.9922,-165 1466.9922,-165"/>
<polygon fill="#000000" stroke="#000000" points="1466.9922,-161.5001 1456.9922,-165 1466.9922,-168.5001 1466.9922,-161.5001"/>
</g>
<!-- AdvancedSearchComponent -->
<g id="node8" class="node">
<title>AdvancedSearchComponent</title>
<polygon fill="#ffffb3" stroke="#000000" points="1964.1699,-122 1787.8301,-122 1787.8301,-86 1964.1699,-86 1964.1699,-122"/>
<text text-anchor="middle" x="1876" y="-99.8" font-family="Times,serif" font-size="14.00" fill="#000000">AdvancedSearchComponent</text>
</g>
<!-- AdvancedSearchComponent&#45;&gt;AppModule -->
<g id="edge8" class="edge">
<title>AdvancedSearchComponent&#45;&gt;AppModule</title>
<path fill="none" stroke="#000000" d="M1876,-122.0352C1876,-138.7344 1876,-161 1876,-161 1876,-161 1466.7237,-161 1466.7237,-161"/>
<polygon fill="#000000" stroke="#000000" points="1466.7238,-157.5001 1456.7237,-161 1466.7237,-164.5001 1466.7238,-157.5001"/>
</g>
<!-- HelpComponent -->
<g id="node9" class="node">
<title>HelpComponent</title>
<polygon fill="#ffffb3" stroke="#000000" points="1770.0452,-122 1661.9548,-122 1661.9548,-86 1770.0452,-86 1770.0452,-122"/>
<text text-anchor="middle" x="1716" y="-99.8" font-family="Times,serif" font-size="14.00" fill="#000000">HelpComponent</text>
</g>
<!-- HelpComponent&#45;&gt;AppModule -->
<g id="edge9" class="edge">
<title>HelpComponent&#45;&gt;AppModule</title>
<path fill="none" stroke="#000000" d="M1716,-122.2819C1716,-137.9478 1716,-158 1716,-158 1716,-158 1466.8528,-158 1466.8528,-158"/>
<polygon fill="#000000" stroke="#000000" points="1466.8528,-154.5001 1456.8528,-158 1466.8527,-161.5001 1466.8528,-154.5001"/>
</g>
<!-- DetailItemComponent -->
<g id="node10" class="node">
<title>DetailItemComponent</title>
<polygon fill="#ffffb3" stroke="#000000" points="1643.6965,-122 1502.3035,-122 1502.3035,-86 1643.6965,-86 1643.6965,-122"/>
<text text-anchor="middle" x="1573" y="-99.8" font-family="Times,serif" font-size="14.00" fill="#000000">DetailItemComponent</text>
</g>
<!-- DetailItemComponent&#45;&gt;AppModule -->
<g id="edge10" class="edge">
<title>DetailItemComponent&#45;&gt;AppModule</title>
<path fill="none" stroke="#000000" d="M1573,-122.1243C1573,-136.7832 1573,-155 1573,-155 1573,-155 1466.9263,-155 1466.9263,-155"/>
<polygon fill="#000000" stroke="#000000" points="1466.9263,-151.5001 1456.9263,-155 1466.9262,-158.5001 1466.9263,-151.5001"/>
</g>
<!-- NotFoundComponent -->
<g id="node11" class="node">
<title>NotFoundComponent</title>
<polygon fill="#ffffb3" stroke="#000000" points="1484.1122,-122 1345.8878,-122 1345.8878,-86 1484.1122,-86 1484.1122,-122"/>
<text text-anchor="middle" x="1415" y="-99.8" font-family="Times,serif" font-size="14.00" fill="#000000">NotFoundComponent</text>
</g>
<!-- NotFoundComponent&#45;&gt;AppModule -->
<g id="edge11" class="edge">
<title>NotFoundComponent&#45;&gt;AppModule</title>
<path fill="none" stroke="#000000" d="M1415,-122.1061C1415,-122.1061 1415,-140.991 1415,-140.991"/>
<polygon fill="#000000" stroke="#000000" points="1411.5001,-140.9909 1415,-150.991 1418.5001,-140.991 1411.5001,-140.9909"/>
</g>
<!-- ParseJsonPipe -->
<g id="node12" class="node">
<title>ParseJsonPipe</title>
<polygon fill="#ffffb3" stroke="#000000" points="1328.094,-122 1231.906,-122 1231.906,-86 1328.094,-86 1328.094,-122"/>
<text text-anchor="middle" x="1280" y="-99.8" font-family="Times,serif" font-size="14.00" fill="#000000">ParseJsonPipe</text>
</g>
<!-- ParseJsonPipe&#45;&gt;AppModule -->
<g id="edge12" class="edge">
<title>ParseJsonPipe&#45;&gt;AppModule</title>
<path fill="none" stroke="#000000" d="M1280,-122.1243C1280,-136.7832 1280,-155 1280,-155 1280,-155 1363.0252,-155 1363.0252,-155"/>
<polygon fill="#000000" stroke="#000000" points="1363.0252,-158.5001 1373.0252,-155 1363.0251,-151.5001 1363.0252,-158.5001"/>
</g>
<!-- UrlPipe -->
<g id="node13" class="node">
<title>UrlPipe</title>
<polygon fill="#ffffb3" stroke="#000000" points="1213.5473,-122 1154.4527,-122 1154.4527,-86 1213.5473,-86 1213.5473,-122"/>
<text text-anchor="middle" x="1184" y="-99.8" font-family="Times,serif" font-size="14.00" fill="#000000">UrlPipe</text>
</g>
<!-- UrlPipe&#45;&gt;AppModule -->
<g id="edge13" class="edge">
<title>UrlPipe&#45;&gt;AppModule</title>
<path fill="none" stroke="#000000" d="M1184,-122.2819C1184,-137.9478 1184,-158 1184,-158 1184,-158 1363.1676,-158 1363.1676,-158"/>
<polygon fill="#000000" stroke="#000000" points="1363.1677,-161.5001 1373.1676,-158 1363.1676,-154.5001 1363.1677,-161.5001"/>
</g>
<!-- ExhibitionsComponent -->
<g id="node14" class="node">
<title>ExhibitionsComponent</title>
<polygon fill="#ffffb3" stroke="#000000" points="1135.892,-122 990.108,-122 990.108,-86 1135.892,-86 1135.892,-122"/>
<text text-anchor="middle" x="1063" y="-99.8" font-family="Times,serif" font-size="14.00" fill="#000000">ExhibitionsComponent</text>
</g>
<!-- ExhibitionsComponent&#45;&gt;AppModule -->
<g id="edge14" class="edge">
<title>ExhibitionsComponent&#45;&gt;AppModule</title>
<path fill="none" stroke="#000000" d="M1063,-122.0352C1063,-138.7344 1063,-161 1063,-161 1063,-161 1363.2387,-161 1363.2387,-161"/>
<polygon fill="#000000" stroke="#000000" points="1363.2387,-164.5001 1373.2387,-161 1363.2387,-157.5001 1363.2387,-164.5001"/>
</g>
<!-- GeneralSearchBoxComponent -->
<g id="node15" class="node">
<title>GeneralSearchBoxComponent</title>
<polygon fill="#ffffb3" stroke="#000000" points="972.5576,-122 785.4424,-122 785.4424,-86 972.5576,-86 972.5576,-122"/>
<text text-anchor="middle" x="879" y="-99.8" font-family="Times,serif" font-size="14.00" fill="#000000">GeneralSearchBoxComponent</text>
</g>
<!-- GeneralSearchBoxComponent&#45;&gt;AppModule -->
<g id="edge15" class="edge">
<title>GeneralSearchBoxComponent&#45;&gt;AppModule</title>
<path fill="none" stroke="#000000" d="M879,-122.302C879,-140.2699 879,-165 879,-165 879,-165 1362.941,-165 1362.941,-165"/>
<polygon fill="#000000" stroke="#000000" points="1362.941,-168.5001 1372.941,-165 1362.9409,-161.5001 1362.941,-168.5001"/>
</g>
<!-- ExhibitionComponent -->
<g id="node16" class="node">
<title>ExhibitionComponent</title>
<polygon fill="#ffffb3" stroke="#000000" points="767.4481,-122 626.5519,-122 626.5519,-86 767.4481,-86 767.4481,-122"/>
<text text-anchor="middle" x="697" y="-99.8" font-family="Times,serif" font-size="14.00" fill="#000000">ExhibitionComponent</text>
</g>
<!-- ExhibitionComponent&#45;&gt;AppModule -->
<g id="edge16" class="edge">
<title>ExhibitionComponent&#45;&gt;AppModule</title>
<path fill="none" stroke="#000000" d="M697,-122.1686C697,-141.0898 697,-168 697,-168 697,-168 1363.2938,-168 1363.2938,-168"/>
<polygon fill="#000000" stroke="#000000" points="1363.2939,-171.5001 1373.2938,-168 1363.2938,-164.5001 1363.2939,-171.5001"/>
</g>
<!-- InstitutionComponent -->
<g id="node17" class="node">
<title>InstitutionComponent</title>
<polygon fill="#ffffb3" stroke="#000000" points="608.3906,-122 469.6094,-122 469.6094,-86 608.3906,-86 608.3906,-122"/>
<text text-anchor="middle" x="539" y="-99.8" font-family="Times,serif" font-size="14.00" fill="#000000">InstitutionComponent</text>
</g>
<!-- InstitutionComponent&#45;&gt;AppModule -->
<g id="edge17" class="edge">
<title>InstitutionComponent&#45;&gt;AppModule</title>
<path fill="none" stroke="#000000" d="M539,-122.308C539,-142.1455 539,-171 539,-171 539,-171 1363.338,-171 1363.338,-171"/>
<polygon fill="#000000" stroke="#000000" points="1363.3381,-174.5001 1373.338,-171 1363.338,-167.5001 1363.3381,-174.5001"/>
</g>
<!-- ErrorComponent -->
<g id="node18" class="node">
<title>ErrorComponent</title>
<polygon fill="#ffffb3" stroke="#000000" points="451.3669,-122 340.6331,-122 340.6331,-86 451.3669,-86 451.3669,-122"/>
<text text-anchor="middle" x="396" y="-99.8" font-family="Times,serif" font-size="14.00" fill="#000000">ErrorComponent</text>
</g>
<!-- ErrorComponent&#45;&gt;AppModule -->
<g id="edge18" class="edge">
<title>ErrorComponent&#45;&gt;AppModule</title>
<path fill="none" stroke="#000000" d="M396,-122.0267C396,-142.7672 396,-174 396,-174 396,-174 1363.1543,-174 1363.1543,-174"/>
<polygon fill="#000000" stroke="#000000" points="1363.1543,-177.5001 1373.1543,-174 1363.1542,-170.5001 1363.1543,-177.5001"/>
</g>
<!-- TruncatePipe -->
<g id="node19" class="node">
<title>TruncatePipe</title>
<polygon fill="#ffffb3" stroke="#000000" points="322.1361,-122 231.8639,-122 231.8639,-86 322.1361,-86 322.1361,-122"/>
<text text-anchor="middle" x="277" y="-99.8" font-family="Times,serif" font-size="14.00" fill="#000000">TruncatePipe</text>
</g>
<!-- TruncatePipe&#45;&gt;AppModule -->
<g id="edge19" class="edge">
<title>TruncatePipe&#45;&gt;AppModule</title>
<path fill="none" stroke="#000000" d="M277,-122.2921C277,-144.2057 277,-178 277,-178 277,-178 1363.1483,-178 1363.1483,-178"/>
<polygon fill="#000000" stroke="#000000" points="1363.1484,-181.5001 1373.1483,-178 1363.1483,-174.5001 1363.1484,-181.5001"/>
</g>
<!-- Router -->
<g id="node20" class="node">
<title>Router</title>
<polygon fill="#ffffb3" stroke="#000000" points="214.1025,-122 159.8975,-122 159.8975,-86 214.1025,-86 214.1025,-122"/>
<text text-anchor="middle" x="187" y="-99.8" font-family="Times,serif" font-size="14.00" fill="#000000">Router</text>
</g>
<!-- Router&#45;&gt;AppModule -->
<g id="edge20" class="edge">
<title>Router&#45;&gt;AppModule</title>
<path fill="none" stroke="#000000" d="M187,-122.2479C187,-145.0179 187,-181 187,-181 187,-181 1363.0847,-181 1363.0847,-181"/>
<polygon fill="#000000" stroke="#000000" points="1363.0847,-184.5001 1373.0847,-181 1363.0847,-177.5001 1363.0847,-184.5001"/>
</g>
<!-- AppComponent  -->
<g id="node22" class="node">
<title>AppComponent </title>
<polygon fill="#80b1d3" stroke="#000000" points="1469.439,-252 1360.561,-252 1360.561,-216 1469.439,-216 1469.439,-252"/>
<text text-anchor="middle" x="1415" y="-229.8" font-family="Times,serif" font-size="14.00" fill="#000000">AppComponent </text>
</g>
<!-- AppModule&#45;&gt;AppComponent  -->
<g id="edge21" class="edge">
<title>AppModule&#45;&gt;AppComponent </title>
<path fill="none" stroke="#000000" stroke-dasharray="1,5" d="M1415,-187.1061C1415,-187.1061 1415,-205.991 1415,-205.991"/>
<polygon fill="#000000" stroke="#000000" points="1411.5001,-205.9909 1415,-215.991 1418.5001,-205.991 1411.5001,-205.9909"/>
</g>
<!-- SolrService -->
<g id="node23" class="node">
<title>SolrService</title>
<ellipse fill="#fdb462" stroke="#000000" cx="80" cy="-104" rx="56.1744" ry="18"/>
<text text-anchor="middle" x="80" y="-99.8" font-family="Times,serif" font-size="14.00" fill="#000000">SolrService</text>
</g>
<!-- SolrService&#45;&gt;AppModule -->
<g id="edge22" class="edge">
<title>SolrService&#45;&gt;AppModule</title>
<path fill="none" stroke="#000000" d="M80,-122.1532C80,-145.7566 80,-184 80,-184 80,-184 1363.2124,-184 1363.2124,-184"/>
<polygon fill="#000000" stroke="#000000" points="1363.2125,-187.5001 1373.2124,-184 1363.2124,-180.5001 1363.2125,-187.5001"/>
</g>
</g>
</svg>
