<?xml version="1.0" encoding="UTF-8" standalone="no"?>
<!DOCTYPE svg PUBLIC "-//W3C//DTD SVG 1.1//EN"
 "http://www.w3.org/Graphics/SVG/1.1/DTD/svg11.dtd">
<!-- Generated by graphviz version 2.40.1 (20161225.0304)
 -->
<!-- Title: dependencies Pages: 1 -->
<svg width="3053pt" height="284pt"
 viewBox="0.00 0.00 3053.00 284.00" xmlns="http://www.w3.org/2000/svg" xmlns:xlink="http://www.w3.org/1999/xlink">
<g id="graph0" class="graph" transform="scale(1 1) rotate(0) translate(4 280)">
<title>dependencies</title>
<polygon fill="#ffffff" stroke="transparent" points="-4,4 -4,-280 3049,-280 3049,4 -4,4"/>
<text text-anchor="start" x="1501.5091" y="-42.4" font-family="sans-serif" font-weight="bold" font-size="14.00" fill="#000000">Legend</text>
<polygon fill="#ffffb3" stroke="transparent" points="1288.5,-10 1288.5,-30 1308.5,-30 1308.5,-10 1288.5,-10"/>
<text text-anchor="start" x="1312.129" y="-15.4" font-family="sans-serif" font-size="14.00" fill="#000000"> &#160;Declarations</text>
<polygon fill="#8dd3c7" stroke="transparent" points="1401.5,-10 1401.5,-30 1421.5,-30 1421.5,-10 1401.5,-10"/>
<text text-anchor="start" x="1425.2251" y="-15.4" font-family="sans-serif" font-size="14.00" fill="#000000"> &#160;Module</text>
<polygon fill="#80b1d3" stroke="transparent" points="1487.5,-10 1487.5,-30 1507.5,-30 1507.5,-10 1487.5,-10"/>
<text text-anchor="start" x="1511.2812" y="-15.4" font-family="sans-serif" font-size="14.00" fill="#000000"> &#160;Bootstrap</text>
<polygon fill="#fdb462" stroke="transparent" points="1584.5,-10 1584.5,-30 1604.5,-30 1604.5,-10 1584.5,-10"/>
<text text-anchor="start" x="1608.1732" y="-15.4" font-family="sans-serif" font-size="14.00" fill="#000000"> &#160;Providers</text>
<polygon fill="#fb8072" stroke="transparent" points="1680.5,-10 1680.5,-30 1700.5,-30 1700.5,-10 1680.5,-10"/>
<text text-anchor="start" x="1704.2258" y="-15.4" font-family="sans-serif" font-size="14.00" fill="#000000"> &#160;Exports</text>
<g id="clust1" class="cluster">
<title>cluster_AboutRoutingModule</title>
<polygon fill="none" stroke="#000000" stroke-dasharray="1,5" points="8,-70 8,-195 1773,-195 1773,-70 8,-70"/>
</g>
<g id="clust2" class="cluster">
<title>cluster_AboutRoutingModule_declarations</title>
<polygon fill="none" stroke="#000000" points="16,-78 16,-130 1765,-130 1765,-78 16,-78"/>
</g>
<g id="clust18" class="cluster">
<title>cluster_AppModule</title>
<polygon fill="none" stroke="#000000" stroke-dasharray="1,5" points="1781,-70 1781,-268 3037,-268 3037,-70 1781,-70"/>
</g>
<g id="clust19" class="cluster">
<title>cluster_AppModule_declarations</title>
<polygon fill="none" stroke="#000000" points="1925,-78 1925,-130 3029,-130 3029,-78 1925,-78"/>
</g>
<g id="clust42" class="cluster">
<title>cluster_AppModule_bootstrap</title>
<polygon fill="none" stroke="#000000" points="1789,-208 1789,-260 1913,-260 1913,-208 1789,-208"/>
</g>
<g id="clust43" class="cluster">
<title>cluster_AppModule_providers</title>
<polygon fill="none" stroke="#000000" points="1789,-78 1789,-130 1917,-130 1917,-78 1789,-78"/>
</g>
<!-- NotFoundComponent -->
<g id="node1" class="node">
<title>NotFoundComponent</title>
<polygon fill="#ffffb3" stroke="#000000" points="1419.1122,-122 1280.8878,-122 1280.8878,-86 1419.1122,-86 1419.1122,-122"/>
<text text-anchor="middle" x="1350" y="-99.8" font-family="Times,serif" font-size="14.00" fill="#000000">NotFoundComponent</text>
</g>
<!-- AboutRoutingModule -->
<g id="node12" class="node">
<title>AboutRoutingModule</title>
<polygon fill="#8dd3c7" stroke="#000000" points="945.6652,-187 942.6652,-191 921.6652,-191 918.6652,-187 806.3348,-187 806.3348,-151 945.6652,-151 945.6652,-187"/>
<text text-anchor="middle" x="876" y="-164.8" font-family="Times,serif" font-size="14.00" fill="#000000">AboutRoutingModule</text>
</g>
<!-- NotFoundComponent&#45;&gt;AboutRoutingModule -->
<g id="edge1" class="edge">
<title>NotFoundComponent&#45;&gt;AboutRoutingModule</title>
<path fill="none" stroke="#000000" d="M1326.9813,-122.027C1326.9813,-138.3976 1326.9813,-160 1326.9813,-160 1326.9813,-160 955.971,-160 955.971,-160"/>
<polygon fill="#000000" stroke="#000000" points="955.971,-156.5001 945.971,-160 955.971,-163.5001 955.971,-156.5001"/>
</g>
<!-- AppModule -->
<g id="node22" class="node">
<title>AppModule</title>
<polygon fill="#8dd3c7" stroke="#000000" points="1882.6571,-187 1879.6571,-191 1858.6571,-191 1855.6571,-187 1799.3429,-187 1799.3429,-151 1882.6571,-151 1882.6571,-187"/>
<text text-anchor="middle" x="1841" y="-164.8" font-family="Times,serif" font-size="14.00" fill="#000000">AppModule</text>
</g>
<!-- NotFoundComponent&#45;&gt;AppModule -->
<g id="edge22" class="edge">
<title>NotFoundComponent&#45;&gt;AppModule</title>
<path fill="none" stroke="#000000" d="M1373.0187,-122.2843C1373.0187,-143.3211 1373.0187,-175 1373.0187,-175 1373.0187,-175 1789.0579,-175 1789.0579,-175"/>
<polygon fill="#000000" stroke="#000000" points="1789.058,-178.5001 1799.0579,-175 1789.0579,-171.5001 1789.058,-178.5001"/>
</g>
<!-- InstitutionComponent -->
<g id="node2" class="node">
<title>InstitutionComponent</title>
<polygon fill="#ffffb3" stroke="#000000" points="1262.3906,-122 1123.6094,-122 1123.6094,-86 1262.3906,-86 1262.3906,-122"/>
<text text-anchor="middle" x="1193" y="-99.8" font-family="Times,serif" font-size="14.00" fill="#000000">InstitutionComponent</text>
</g>
<!-- InstitutionComponent&#45;&gt;AboutRoutingModule -->
<g id="edge2" class="edge">
<title>InstitutionComponent&#45;&gt;AboutRoutingModule</title>
<path fill="none" stroke="#000000" d="M1169.8516,-122.2396C1169.8516,-137.5706 1169.8516,-157 1169.8516,-157 1169.8516,-157 956.0114,-157 956.0114,-157"/>
<polygon fill="#000000" stroke="#000000" points="956.0115,-153.5001 946.0114,-157 956.0114,-160.5001 956.0115,-153.5001"/>
</g>
<!-- InstitutionComponent&#45;&gt;AppModule -->
<g id="edge28" class="edge">
<title>InstitutionComponent&#45;&gt;AppModule</title>
<path fill="none" stroke="#000000" d="M1216.1484,-122.2921C1216.1484,-144.2057 1216.1484,-178 1216.1484,-178 1216.1484,-178 1789.0315,-178 1789.0315,-178"/>
<polygon fill="#000000" stroke="#000000" points="1789.0315,-181.5001 1799.0315,-178 1789.0314,-174.5001 1789.0315,-181.5001"/>
</g>
<!-- ExhibitionComponent -->
<g id="node3" class="node">
<title>ExhibitionComponent</title>
<polygon fill="#ffffb3" stroke="#000000" points="1105.4481,-122 964.5519,-122 964.5519,-86 1105.4481,-86 1105.4481,-122"/>
<text text-anchor="middle" x="1035" y="-99.8" font-family="Times,serif" font-size="14.00" fill="#000000">ExhibitionComponent</text>
</g>
<!-- ExhibitionComponent&#45;&gt;AboutRoutingModule -->
<g id="edge3" class="edge">
<title>ExhibitionComponent&#45;&gt;AboutRoutingModule</title>
<path fill="none" stroke="#000000" d="M1011.5921,-122.0511C1011.5921,-136.373 1011.5921,-154 1011.5921,-154 1011.5921,-154 955.782,-154 955.782,-154"/>
<polygon fill="#000000" stroke="#000000" points="955.782,-150.5001 945.782,-154 955.782,-157.5001 955.782,-150.5001"/>
</g>
<!-- ExhibitionComponent&#45;&gt;AppModule -->
<g id="edge27" class="edge">
<title>ExhibitionComponent&#45;&gt;AppModule</title>
<path fill="none" stroke="#000000" d="M1058.4079,-122.2479C1058.4079,-145.0179 1058.4079,-181 1058.4079,-181 1058.4079,-181 1789.2011,-181 1789.2011,-181"/>
<polygon fill="#000000" stroke="#000000" points="1789.2012,-184.5001 1799.2011,-181 1789.2011,-177.5001 1789.2012,-184.5001"/>
</g>
<!-- DetailItemComponent -->
<g id="node4" class="node">
<title>DetailItemComponent</title>
<polygon fill="#ffffb3" stroke="#000000" points="946.6965,-122 805.3035,-122 805.3035,-86 946.6965,-86 946.6965,-122"/>
<text text-anchor="middle" x="876" y="-99.8" font-family="Times,serif" font-size="14.00" fill="#000000">DetailItemComponent</text>
</g>
<!-- DetailItemComponent&#45;&gt;AboutRoutingModule -->
<g id="edge4" class="edge">
<title>DetailItemComponent&#45;&gt;AboutRoutingModule</title>
<path fill="none" stroke="#000000" d="M876,-122.1061C876,-122.1061 876,-140.991 876,-140.991"/>
<polygon fill="#000000" stroke="#000000" points="872.5001,-140.9909 876,-150.991 879.5001,-140.991 872.5001,-140.9909"/>
</g>
<!-- DetailItemComponent&#45;&gt;AppModule -->
<g id="edge21" class="edge">
<title>DetailItemComponent&#45;&gt;AppModule</title>
<path fill="none" stroke="#000000" d="M946.8549,-104C952.2717,-104 955.6873,-104 955.6873,-104 955.6873,-104 955.6873,-184 955.6873,-184 955.6873,-184 1789.1915,-184 1789.1915,-184"/>
<polygon fill="#000000" stroke="#000000" points="1789.1915,-187.5001 1799.1915,-184 1789.1915,-180.5001 1789.1915,-187.5001"/>
</g>
<!-- AboutComponent -->
<g id="node5" class="node">
<title>AboutComponent</title>
<polygon fill="#ffffb3" stroke="#000000" points="787.3301,-122 670.6699,-122 670.6699,-86 787.3301,-86 787.3301,-122"/>
<text text-anchor="middle" x="729" y="-99.8" font-family="Times,serif" font-size="14.00" fill="#000000">AboutComponent</text>
</g>
<!-- AboutComponent&#45;&gt;AboutRoutingModule -->
<g id="edge5" class="edge">
<title>AboutComponent&#45;&gt;AboutRoutingModule</title>
<path fill="none" stroke="#000000" d="M748.3883,-122.2396C748.3883,-137.5706 748.3883,-157 748.3883,-157 748.3883,-157 796.2201,-157 796.2201,-157"/>
<polygon fill="#000000" stroke="#000000" points="796.2202,-160.5001 806.2201,-157 796.2201,-153.5001 796.2202,-160.5001"/>
</g>
<!-- AboutComponent&#45;&gt;AppModule -->
<g id="edge16" class="edge">
<title>AboutComponent&#45;&gt;AppModule</title>
<path fill="none" stroke="#000000" d="M709.6117,-122.1223C709.6117,-124.9729 709.6117,-127 709.6117,-127 709.6117,-127 1858.9264,-127 1858.9264,-127 1858.9264,-127 1858.9264,-140.9445 1858.9264,-140.9445"/>
<polygon fill="#000000" stroke="#000000" points="1855.4265,-140.9444 1858.9264,-150.9445 1862.4265,-140.9445 1855.4265,-140.9444"/>
</g>
<!-- HelpComponent -->
<g id="node6" class="node">
<title>HelpComponent</title>
<polygon fill="#ffffb3" stroke="#000000" points="653.0452,-122 544.9548,-122 544.9548,-86 653.0452,-86 653.0452,-122"/>
<text text-anchor="middle" x="599" y="-99.8" font-family="Times,serif" font-size="14.00" fill="#000000">HelpComponent</text>
</g>
<!-- HelpComponent&#45;&gt;AboutRoutingModule -->
<g id="edge6" class="edge">
<title>HelpComponent&#45;&gt;AboutRoutingModule</title>
<path fill="none" stroke="#000000" d="M617.0907,-122.0225C617.0907,-139.3734 617.0907,-163 617.0907,-163 617.0907,-163 796.2765,-163 796.2765,-163"/>
<polygon fill="#000000" stroke="#000000" points="796.2765,-166.5001 806.2765,-163 796.2764,-159.5001 796.2765,-166.5001"/>
</g>
<!-- HelpComponent&#45;&gt;AppModule -->
<g id="edge20" class="edge">
<title>HelpComponent&#45;&gt;AppModule</title>
<path fill="none" stroke="#000000" d="M580.9093,-122.207C580.9093,-127.5549 580.9093,-132 580.9093,-132 580.9093,-132 1846.9755,-132 1846.9755,-132 1846.9755,-132 1846.9755,-140.9336 1846.9755,-140.9336"/>
<polygon fill="#000000" stroke="#000000" points="1843.4756,-140.9335 1846.9755,-150.9336 1850.4756,-140.9336 1843.4756,-140.9335"/>
</g>
<!-- AdvancedSearchComponent -->
<g id="node7" class="node">
<title>AdvancedSearchComponent</title>
<polygon fill="#ffffb3" stroke="#000000" points="527.1699,-122 350.8301,-122 350.8301,-86 527.1699,-86 527.1699,-122"/>
<text text-anchor="middle" x="439" y="-99.8" font-family="Times,serif" font-size="14.00" fill="#000000">AdvancedSearchComponent</text>
</g>
<!-- AdvancedSearchComponent&#45;&gt;AboutRoutingModule -->
<g id="edge7" class="edge">
<title>AdvancedSearchComponent&#45;&gt;AboutRoutingModule</title>
<path fill="none" stroke="#000000" d="M468.3616,-122.1061C468.3616,-141.3391 468.3616,-169 468.3616,-169 468.3616,-169 795.9245,-169 795.9245,-169"/>
<polygon fill="#000000" stroke="#000000" points="795.9245,-172.5001 805.9245,-169 795.9244,-165.5001 795.9245,-172.5001"/>
</g>
<!-- AdvancedSearchComponent&#45;&gt;AppModule -->
<g id="edge19" class="edge">
<title>AdvancedSearchComponent&#45;&gt;AppModule</title>
<path fill="none" stroke="#000000" d="M409.6384,-122.0449C409.6384,-129.749 409.6384,-137 409.6384,-137 409.6384,-137 1835.0245,-137 1835.0245,-137 1835.0245,-137 1835.0245,-140.7566 1835.0245,-140.7566"/>
<polygon fill="#000000" stroke="#000000" points="1831.5246,-140.7566 1835.0245,-150.7566 1838.5246,-140.7566 1831.5246,-140.7566"/>
</g>
<!-- ExhibitionsComponent -->
<g id="node8" class="node">
<title>ExhibitionsComponent</title>
<polygon fill="#ffffb3" stroke="#000000" points="332.892,-122 187.108,-122 187.108,-86 332.892,-86 332.892,-122"/>
<text text-anchor="middle" x="260" y="-99.8" font-family="Times,serif" font-size="14.00" fill="#000000">ExhibitionsComponent</text>
</g>
<!-- ExhibitionsComponent&#45;&gt;AboutRoutingModule -->
<g id="edge8" class="edge">
<title>ExhibitionsComponent&#45;&gt;AboutRoutingModule</title>
<path fill="none" stroke="#000000" d="M284.3153,-122.2843C284.3153,-143.3211 284.3153,-175 284.3153,-175 284.3153,-175 796.0947,-175 796.0947,-175"/>
<polygon fill="#000000" stroke="#000000" points="796.0947,-178.5001 806.0947,-175 796.0946,-171.5001 796.0947,-178.5001"/>
</g>
<!-- ExhibitionsComponent&#45;&gt;AppModule -->
<g id="edge25" class="edge">
<title>ExhibitionsComponent&#45;&gt;AppModule</title>
<path fill="none" stroke="#000000" d="M235.6847,-122.1097C235.6847,-131.897 235.6847,-142 235.6847,-142 235.6847,-142 1823.0736,-142 1823.0736,-142 1823.0736,-142 1823.0736,-142.8841 1823.0736,-142.8841"/>
<polygon fill="#000000" stroke="#000000" points="1819.5738,-140.8408 1823.0736,-150.8408 1826.5738,-140.8409 1819.5738,-140.8408"/>
</g>
<!-- CollectionsComponent -->
<g id="node9" class="node">
<title>CollectionsComponent</title>
<polygon fill="#ffffb3" stroke="#000000" points="169.6052,-122 24.3948,-122 24.3948,-86 169.6052,-86 169.6052,-122"/>
<text text-anchor="middle" x="97" y="-99.8" font-family="Times,serif" font-size="14.00" fill="#000000">CollectionsComponent</text>
</g>
<!-- CollectionsComponent&#45;&gt;AboutRoutingModule -->
<g id="edge9" class="edge">
<title>CollectionsComponent&#45;&gt;AboutRoutingModule</title>
<path fill="none" stroke="#000000" d="M121.1842,-122.2479C121.1842,-145.0179 121.1842,-181 121.1842,-181 121.1842,-181 796.0045,-181 796.0045,-181"/>
<polygon fill="#000000" stroke="#000000" points="796.0045,-184.5001 806.0045,-181 796.0044,-177.5001 796.0045,-184.5001"/>
</g>
<!-- CollectionsComponent&#45;&gt;AppModule -->
<g id="edge18" class="edge">
<title>CollectionsComponent&#45;&gt;AppModule</title>
<path fill="none" stroke="#000000" d="M72.8158,-122.4854C72.8158,-134.1399 72.8158,-147 72.8158,-147 72.8158,-147 1811.1227,-147 1811.1227,-147 1811.1227,-147 1811.1227,-147.3832 1811.1227,-147.3832"/>
<polygon fill="#000000" stroke="#000000" points="1807.623,-140.832 1811.1227,-150.8321 1814.623,-140.8322 1807.623,-140.832"/>
</g>
<!-- InstitutionsComponent -->
<g id="node10" class="node">
<title>InstitutionsComponent</title>
<polygon fill="#ffffb3" stroke="#000000" points="1757.3356,-122 1612.6644,-122 1612.6644,-86 1757.3356,-86 1757.3356,-122"/>
<text text-anchor="middle" x="1685" y="-99.8" font-family="Times,serif" font-size="14.00" fill="#000000">InstitutionsComponent</text>
</g>
<!-- InstitutionsComponent&#45;&gt;AboutRoutingModule -->
<g id="edge10" class="edge">
<title>InstitutionsComponent&#45;&gt;AboutRoutingModule</title>
<path fill="none" stroke="#000000" d="M1660.9441,-122.2667C1660.9441,-140.5552 1660.9441,-166 1660.9441,-166 1660.9441,-166 956.0036,-166 956.0036,-166"/>
<polygon fill="#000000" stroke="#000000" points="956.0036,-162.5001 946.0036,-166 956.0036,-169.5001 956.0036,-162.5001"/>
</g>
<!-- InstitutionsComponent&#45;&gt;AppModule -->
<g id="edge17" class="edge">
<title>InstitutionsComponent&#45;&gt;AppModule</title>
<path fill="none" stroke="#000000" d="M1709.0559,-122.1061C1709.0559,-141.3391 1709.0559,-169 1709.0559,-169 1709.0559,-169 1789.2521,-169 1789.2521,-169"/>
<polygon fill="#000000" stroke="#000000" points="1789.2521,-172.5001 1799.2521,-169 1789.252,-165.5001 1789.2521,-172.5001"/>
</g>
<!-- IndexContentComponent -->
<g id="node11" class="node">
<title>IndexContentComponent</title>
<polygon fill="#ffffb3" stroke="#000000" points="1594.5407,-122 1437.4593,-122 1437.4593,-86 1594.5407,-86 1594.5407,-122"/>
<text text-anchor="middle" x="1516" y="-99.8" font-family="Times,serif" font-size="14.00" fill="#000000">IndexContentComponent</text>
</g>
<!-- IndexContentComponent&#45;&gt;AboutRoutingModule -->
<g id="edge11" class="edge">
<title>IndexContentComponent&#45;&gt;AboutRoutingModule</title>
<path fill="none" stroke="#000000" d="M1489.7433,-122.0225C1489.7433,-139.3734 1489.7433,-163 1489.7433,-163 1489.7433,-163 955.8066,-163 955.8066,-163"/>
<polygon fill="#000000" stroke="#000000" points="955.8067,-159.5001 945.8066,-163 955.8066,-166.5001 955.8067,-159.5001"/>
</g>
<!-- IndexContentComponent&#45;&gt;AppModule -->
<g id="edge15" class="edge">
<title>IndexContentComponent&#45;&gt;AppModule</title>
<path fill="none" stroke="#000000" d="M1542.2567,-122.2228C1542.2567,-142.3652 1542.2567,-172 1542.2567,-172 1542.2567,-172 1789.1465,-172 1789.1465,-172"/>
<polygon fill="#000000" stroke="#000000" points="1789.1465,-175.5001 1799.1465,-172 1789.1464,-168.5001 1789.1465,-175.5001"/>
</g>
<!-- AppComponent -->
<g id="node13" class="node">
<title>AppComponent</title>
<polygon fill="#ffffb3" stroke="#000000" points="2314.9399,-122 2209.0601,-122 2209.0601,-86 2314.9399,-86 2314.9399,-122"/>
<text text-anchor="middle" x="2262" y="-99.8" font-family="Times,serif" font-size="14.00" fill="#000000">AppComponent</text>
</g>
<!-- AppComponent&#45;&gt;AppModule -->
<g id="edge12" class="edge">
<title>AppComponent&#45;&gt;AppModule</title>
<path fill="none" stroke="#000000" d="M2262,-122.0336C2262,-139.0597 2262,-162 2262,-162 2262,-162 1892.9062,-162 1892.9062,-162"/>
<polygon fill="#000000" stroke="#000000" points="1892.9063,-158.5001 1882.9062,-162 1892.9062,-165.5001 1892.9063,-158.5001"/>
</g>
<!-- HeaderComponent -->
<g id="node14" class="node">
<title>HeaderComponent</title>
<polygon fill="#ffffb3" stroke="#000000" points="2190.7437,-122 2069.2563,-122 2069.2563,-86 2190.7437,-86 2190.7437,-122"/>
<text text-anchor="middle" x="2130" y="-99.8" font-family="Times,serif" font-size="14.00" fill="#000000">HeaderComponent</text>
</g>
<!-- HeaderComponent&#45;&gt;AppModule -->
<g id="edge13" class="edge">
<title>HeaderComponent&#45;&gt;AppModule</title>
<path fill="none" stroke="#000000" d="M2130,-122.0091C2130,-138.0494 2130,-159 2130,-159 2130,-159 1892.7144,-159 1892.7144,-159"/>
<polygon fill="#000000" stroke="#000000" points="1892.7145,-155.5001 1882.7144,-159 1892.7144,-162.5001 1892.7145,-155.5001"/>
</g>
<!-- FooterComponent -->
<g id="node15" class="node">
<title>FooterComponent</title>
<polygon fill="#ffffb3" stroke="#000000" points="2050.8809,-122 1933.1191,-122 1933.1191,-86 2050.8809,-86 2050.8809,-122"/>
<text text-anchor="middle" x="1992" y="-99.8" font-family="Times,serif" font-size="14.00" fill="#000000">FooterComponent</text>
</g>
<!-- FooterComponent&#45;&gt;AppModule -->
<g id="edge14" class="edge">
<title>FooterComponent&#45;&gt;AppModule</title>
<path fill="none" stroke="#000000" d="M1992,-122.1243C1992,-136.7832 1992,-155 1992,-155 1992,-155 1892.6611,-155 1892.6611,-155"/>
<polygon fill="#000000" stroke="#000000" points="1892.6612,-151.5001 1882.6611,-155 1892.6611,-158.5001 1892.6612,-151.5001"/>
</g>
<!-- ParseJsonPipe -->
<g id="node16" class="node">
<title>ParseJsonPipe</title>
<polygon fill="#ffffb3" stroke="#000000" points="3021.094,-122 2924.906,-122 2924.906,-86 3021.094,-86 3021.094,-122"/>
<text text-anchor="middle" x="2973" y="-99.8" font-family="Times,serif" font-size="14.00" fill="#000000">ParseJsonPipe</text>
</g>
<!-- ParseJsonPipe&#45;&gt;AppModule -->
<g id="edge23" class="edge">
<title>ParseJsonPipe&#45;&gt;AppModule</title>
<path fill="none" stroke="#000000" d="M2973,-122.1532C2973,-145.7566 2973,-184 2973,-184 2973,-184 1892.9697,-184 1892.9697,-184"/>
<polygon fill="#000000" stroke="#000000" points="1892.9698,-180.5001 1882.9697,-184 1892.9697,-187.5001 1892.9698,-180.5001"/>
</g>
<!-- UrlPipe -->
<g id="node17" class="node">
<title>UrlPipe</title>
<polygon fill="#ffffb3" stroke="#000000" points="2906.5473,-122 2847.4527,-122 2847.4527,-86 2906.5473,-86 2906.5473,-122"/>
<text text-anchor="middle" x="2877" y="-99.8" font-family="Times,serif" font-size="14.00" fill="#000000">UrlPipe</text>
</g>
<!-- UrlPipe&#45;&gt;AppModule -->
<g id="edge24" class="edge">
<title>UrlPipe&#45;&gt;AppModule</title>
<path fill="none" stroke="#000000" d="M2877,-122.0109C2877,-144.4852 2877,-180 2877,-180 2877,-180 1892.8956,-180 1892.8956,-180"/>
<polygon fill="#000000" stroke="#000000" points="1892.8956,-176.5001 1882.8956,-180 1892.8955,-183.5001 1892.8956,-176.5001"/>
</g>
<!-- GeneralSearchBoxComponent -->
<g id="node18" class="node">
<title>GeneralSearchBoxComponent</title>
<polygon fill="#ffffb3" stroke="#000000" points="2829.5576,-122 2642.4424,-122 2642.4424,-86 2829.5576,-86 2829.5576,-122"/>
<text text-anchor="middle" x="2736" y="-99.8" font-family="Times,serif" font-size="14.00" fill="#000000">GeneralSearchBoxComponent</text>
</g>
<!-- GeneralSearchBoxComponent&#45;&gt;AppModule -->
<g id="edge26" class="edge">
<title>GeneralSearchBoxComponent&#45;&gt;AppModule</title>
<path fill="none" stroke="#000000" d="M2736,-122.0449C2736,-143.6623 2736,-177 2736,-177 2736,-177 1892.6695,-177 1892.6695,-177"/>
<polygon fill="#000000" stroke="#000000" points="1892.6696,-173.5001 1882.6695,-177 1892.6695,-180.5001 1892.6696,-173.5001"/>
</g>
<!-- ErrorComponent -->
<g id="node19" class="node">
<title>ErrorComponent</title>
<polygon fill="#ffffb3" stroke="#000000" points="2624.3669,-122 2513.6331,-122 2513.6331,-86 2624.3669,-86 2624.3669,-122"/>
<text text-anchor="middle" x="2569" y="-99.8" font-family="Times,serif" font-size="14.00" fill="#000000">ErrorComponent</text>
</g>
<!-- ErrorComponent&#45;&gt;AppModule -->
<g id="edge29" class="edge">
<title>ErrorComponent&#45;&gt;AppModule</title>
<path fill="none" stroke="#000000" d="M2569,-122.1289C2569,-142.5724 2569,-173 2569,-173 2569,-173 1892.7552,-173 1892.7552,-173"/>
<polygon fill="#000000" stroke="#000000" points="1892.7552,-169.5001 1882.7552,-173 1892.7552,-176.5001 1892.7552,-169.5001"/>
</g>
<!-- TruncatePipe -->
<g id="node20" class="node">
<title>TruncatePipe</title>
<polygon fill="#ffffb3" stroke="#000000" points="2495.1361,-122 2404.8639,-122 2404.8639,-86 2495.1361,-86 2495.1361,-122"/>
<text text-anchor="middle" x="2450" y="-99.8" font-family="Times,serif" font-size="14.00" fill="#000000">TruncatePipe</text>
</g>
<!-- TruncatePipe&#45;&gt;AppModule -->
<g id="edge30" class="edge">
<title>TruncatePipe&#45;&gt;AppModule</title>
<path fill="none" stroke="#000000" d="M2450,-122.1061C2450,-141.3391 2450,-169 2450,-169 2450,-169 1892.859,-169 1892.859,-169"/>
<polygon fill="#000000" stroke="#000000" points="1892.8591,-165.5001 1882.859,-169 1892.859,-172.5001 1892.8591,-165.5001"/>
</g>
<!-- Router -->
<g id="node21" class="node">
<title>Router</title>
<polygon fill="#ffffb3" stroke="#000000" points="2387.1025,-122 2332.8975,-122 2332.8975,-86 2387.1025,-86 2387.1025,-122"/>
<text text-anchor="middle" x="2360" y="-99.8" font-family="Times,serif" font-size="14.00" fill="#000000">Router</text>
</g>
<!-- Router&#45;&gt;AppModule -->
<g id="edge31" class="edge">
<title>Router&#45;&gt;AppModule</title>
<path fill="none" stroke="#000000" d="M2360,-122.2667C2360,-140.5552 2360,-166 2360,-166 2360,-166 1893.0323,-166 1893.0323,-166"/>
<polygon fill="#000000" stroke="#000000" points="1893.0324,-162.5001 1883.0323,-166 1893.0323,-169.5001 1893.0324,-162.5001"/>
</g>
<!-- AppComponent  -->
<g id="node23" class="node">
<title>AppComponent </title>
<polygon fill="#80b1d3" stroke="#000000" points="1905.439,-252 1796.561,-252 1796.561,-216 1905.439,-216 1905.439,-252"/>
<text text-anchor="middle" x="1851" y="-229.8" font-family="Times,serif" font-size="14.00" fill="#000000">AppComponent </text>
</g>
<!-- AppModule&#45;&gt;AppComponent  -->
<g id="edge32" class="edge">
<title>AppModule&#45;&gt;AppComponent </title>
<path fill="none" stroke="#000000" stroke-dasharray="1,5" d="M1841,-187.1061C1841,-187.1061 1841,-205.991 1841,-205.991"/>
<polygon fill="#000000" stroke="#000000" points="1837.5001,-205.9909 1841,-215.991 1844.5001,-205.991 1837.5001,-205.9909"/>
</g>
<!-- SolrService -->
<g id="node24" class="node">
<title>SolrService</title>
<ellipse fill="#fdb462" stroke="#000000" cx="1853" cy="-104" rx="56.1744" ry="18"/>
<text text-anchor="middle" x="1853" y="-99.8" font-family="Times,serif" font-size="14.00" fill="#000000">SolrService</text>
</g>
<!-- SolrService&#45;&gt;AppModule -->
<g id="edge33" class="edge">
<title>SolrService&#45;&gt;AppModule</title>
<path fill="none" stroke="#000000" d="M1870.8773,-121.078C1870.8773,-121.078 1870.8773,-140.8993 1870.8773,-140.8993"/>
<polygon fill="#000000" stroke="#000000" points="1867.3774,-140.8992 1870.8773,-150.8993 1874.3774,-140.8993 1867.3774,-140.8992"/>
</g>
</g>
</svg>
