<?xml version="1.0" encoding="UTF-8" standalone="no"?>
<!DOCTYPE svg PUBLIC "-//W3C//DTD SVG 1.1//EN"
 "http://www.w3.org/Graphics/SVG/1.1/DTD/svg11.dtd">
<!-- Generated by graphviz version 2.40.1 (20161225.0304)
 -->
<!-- Title: dependencies Pages: 1 -->
<svg width="1789pt" height="211pt"
 viewBox="0.00 0.00 1789.00 211.00" xmlns="http://www.w3.org/2000/svg" xmlns:xlink="http://www.w3.org/1999/xlink">
<g id="graph0" class="graph" transform="scale(1 1) rotate(0) translate(4 207)">
<title>dependencies</title>
<polygon fill="#ffffff" stroke="transparent" points="-4,4 -4,-207 1785,-207 1785,4 -4,4"/>
<text text-anchor="start" x="869.5091" y="-42.4" font-family="sans-serif" font-weight="bold" font-size="14.00" fill="#000000">Legend</text>
<polygon fill="#ffffb3" stroke="transparent" points="656.5,-10 656.5,-30 676.5,-30 676.5,-10 656.5,-10"/>
<text text-anchor="start" x="680.129" y="-15.4" font-family="sans-serif" font-size="14.00" fill="#000000"> &#160;Declarations</text>
<polygon fill="#8dd3c7" stroke="transparent" points="769.5,-10 769.5,-30 789.5,-30 789.5,-10 769.5,-10"/>
<text text-anchor="start" x="793.2251" y="-15.4" font-family="sans-serif" font-size="14.00" fill="#000000"> &#160;Module</text>
<polygon fill="#80b1d3" stroke="transparent" points="855.5,-10 855.5,-30 875.5,-30 875.5,-10 855.5,-10"/>
<text text-anchor="start" x="879.2812" y="-15.4" font-family="sans-serif" font-size="14.00" fill="#000000"> &#160;Bootstrap</text>
<polygon fill="#fdb462" stroke="transparent" points="952.5,-10 952.5,-30 972.5,-30 972.5,-10 952.5,-10"/>
<text text-anchor="start" x="976.1732" y="-15.4" font-family="sans-serif" font-size="14.00" fill="#000000"> &#160;Providers</text>
<polygon fill="#fb8072" stroke="transparent" points="1048.5,-10 1048.5,-30 1068.5,-30 1068.5,-10 1048.5,-10"/>
<text text-anchor="start" x="1072.2258" y="-15.4" font-family="sans-serif" font-size="14.00" fill="#000000"> &#160;Exports</text>
<g id="clust1" class="cluster">
<title>cluster_AboutRoutingModule</title>
<polygon fill="none" stroke="#000000" stroke-dasharray="1,5" points="8,-70 8,-195 1773,-195 1773,-70 8,-70"/>
</g>
<g id="clust2" class="cluster">
<title>cluster_AboutRoutingModule_declarations</title>
<polygon fill="none" stroke="#000000" points="16,-78 16,-130 1765,-130 1765,-78 16,-78"/>
</g>
<!-- NotFoundComponent -->
<g id="node1" class="node">
<title>NotFoundComponent</title>
<polygon fill="#ffffb3" stroke="#000000" points="1757.1122,-122 1618.8878,-122 1618.8878,-86 1757.1122,-86 1757.1122,-122"/>
<text text-anchor="middle" x="1688" y="-99.8" font-family="Times,serif" font-size="14.00" fill="#000000">NotFoundComponent</text>
</g>
<!-- AboutRoutingModule -->
<g id="node12" class="node">
<title>AboutRoutingModule</title>
<polygon fill="#8dd3c7" stroke="#000000" points="1006.6652,-187 1003.6652,-191 982.6652,-191 979.6652,-187 867.3348,-187 867.3348,-151 1006.6652,-151 1006.6652,-187"/>
<text text-anchor="middle" x="937" y="-164.8" font-family="Times,serif" font-size="14.00" fill="#000000">AboutRoutingModule</text>
</g>
<!-- NotFoundComponent&#45;&gt;AboutRoutingModule -->
<g id="edge1" class="edge">
<title>NotFoundComponent&#45;&gt;AboutRoutingModule</title>
<path fill="none" stroke="#000000" d="M1688,-122.0109C1688,-144.4852 1688,-180 1688,-180 1688,-180 1016.9779,-180 1016.9779,-180"/>
<polygon fill="#000000" stroke="#000000" points="1016.9779,-176.5001 1006.9779,-180 1016.9778,-183.5001 1016.9779,-176.5001"/>
</g>
<!-- InstitutionComponent -->
<g id="node2" class="node">
<title>InstitutionComponent</title>
<polygon fill="#ffffb3" stroke="#000000" points="1600.3906,-122 1461.6094,-122 1461.6094,-86 1600.3906,-86 1600.3906,-122"/>
<text text-anchor="middle" x="1531" y="-99.8" font-family="Times,serif" font-size="14.00" fill="#000000">InstitutionComponent</text>
</g>
<!-- InstitutionComponent&#45;&gt;AboutRoutingModule -->
<g id="edge2" class="edge">
<title>InstitutionComponent&#45;&gt;AboutRoutingModule</title>
<path fill="none" stroke="#000000" d="M1531,-122.1289C1531,-142.5724 1531,-173 1531,-173 1531,-173 1016.8861,-173 1016.8861,-173"/>
<polygon fill="#000000" stroke="#000000" points="1016.8861,-169.5001 1006.8861,-173 1016.886,-176.5001 1016.8861,-169.5001"/>
</g>
<!-- ExhibitionComponent -->
<g id="node3" class="node">
<title>ExhibitionComponent</title>
<polygon fill="#ffffb3" stroke="#000000" points="1443.4481,-122 1302.5519,-122 1302.5519,-86 1443.4481,-86 1443.4481,-122"/>
<text text-anchor="middle" x="1373" y="-99.8" font-family="Times,serif" font-size="14.00" fill="#000000">ExhibitionComponent</text>
</g>
<!-- ExhibitionComponent&#45;&gt;AboutRoutingModule -->
<g id="edge3" class="edge">
<title>ExhibitionComponent&#45;&gt;AboutRoutingModule</title>
<path fill="none" stroke="#000000" d="M1373,-122.2667C1373,-140.5552 1373,-166 1373,-166 1373,-166 1017.0509,-166 1017.0509,-166"/>
<polygon fill="#000000" stroke="#000000" points="1017.051,-162.5001 1007.0509,-166 1017.0509,-169.5001 1017.051,-162.5001"/>
</g>
<!-- DetailItemComponent -->
<g id="node4" class="node">
<title>DetailItemComponent</title>
<polygon fill="#ffffb3" stroke="#000000" points="1284.6965,-122 1143.3035,-122 1143.3035,-86 1284.6965,-86 1284.6965,-122"/>
<text text-anchor="middle" x="1214" y="-99.8" font-family="Times,serif" font-size="14.00" fill="#000000">DetailItemComponent</text>
</g>
<!-- DetailItemComponent&#45;&gt;AboutRoutingModule -->
<g id="edge4" class="edge">
<title>DetailItemComponent&#45;&gt;AboutRoutingModule</title>
<path fill="none" stroke="#000000" d="M1214,-122.0091C1214,-138.0494 1214,-159 1214,-159 1214,-159 1016.8988,-159 1016.8988,-159"/>
<polygon fill="#000000" stroke="#000000" points="1016.8988,-155.5001 1006.8988,-159 1016.8988,-162.5001 1016.8988,-155.5001"/>
</g>
<!-- AboutComponent -->
<g id="node5" class="node">
<title>AboutComponent</title>
<polygon fill="#ffffb3" stroke="#000000" points="1125.3301,-122 1008.6699,-122 1008.6699,-86 1125.3301,-86 1125.3301,-122"/>
<text text-anchor="middle" x="1067" y="-99.8" font-family="Times,serif" font-size="14.00" fill="#000000">AboutComponent</text>
</g>
<!-- AboutComponent&#45;&gt;AboutRoutingModule -->
<g id="edge5" class="edge">
<title>AboutComponent&#45;&gt;AboutRoutingModule</title>
<path fill="none" stroke="#000000" d="M1008.7875,-104C1002.9102,-104 999.0523,-104 999.0523,-104 999.0523,-104 999.0523,-140.8939 999.0523,-140.8939"/>
<polygon fill="#000000" stroke="#000000" points="995.5523,-140.8938 999.0523,-150.8939 1002.5523,-140.8939 995.5523,-140.8938"/>
</g>
<!-- HelpComponent -->
<g id="node6" class="node">
<title>HelpComponent</title>
<polygon fill="#ffffb3" stroke="#000000" points="991.0452,-122 882.9548,-122 882.9548,-86 991.0452,-86 991.0452,-122"/>
<text text-anchor="middle" x="937" y="-99.8" font-family="Times,serif" font-size="14.00" fill="#000000">HelpComponent</text>
</g>
<!-- HelpComponent&#45;&gt;AboutRoutingModule -->
<g id="edge6" class="edge">
<title>HelpComponent&#45;&gt;AboutRoutingModule</title>
<path fill="none" stroke="#000000" d="M937,-122.1061C937,-122.1061 937,-140.991 937,-140.991"/>
<polygon fill="#000000" stroke="#000000" points="933.5001,-140.9909 937,-150.991 940.5001,-140.991 933.5001,-140.9909"/>
</g>
<!-- AdvancedSearchComponent -->
<g id="node7" class="node">
<title>AdvancedSearchComponent</title>
<polygon fill="#ffffb3" stroke="#000000" points="865.1699,-122 688.8301,-122 688.8301,-86 865.1699,-86 865.1699,-122"/>
<text text-anchor="middle" x="777" y="-99.8" font-family="Times,serif" font-size="14.00" fill="#000000">AdvancedSearchComponent</text>
</g>
<!-- AdvancedSearchComponent&#45;&gt;AboutRoutingModule -->
<g id="edge7" class="edge">
<title>AdvancedSearchComponent&#45;&gt;AboutRoutingModule</title>
<path fill="none" stroke="#000000" d="M865.1981,-104C871.2113,-104 874.9478,-104 874.9478,-104 874.9478,-104 874.9478,-140.8939 874.9478,-140.8939"/>
<polygon fill="#000000" stroke="#000000" points="871.4478,-140.8938 874.9478,-150.8939 878.4478,-140.8939 871.4478,-140.8938"/>
</g>
<!-- ExhibitionsComponent -->
<g id="node8" class="node">
<title>ExhibitionsComponent</title>
<polygon fill="#ffffb3" stroke="#000000" points="670.892,-122 525.108,-122 525.108,-86 670.892,-86 670.892,-122"/>
<text text-anchor="middle" x="598" y="-99.8" font-family="Times,serif" font-size="14.00" fill="#000000">ExhibitionsComponent</text>
</g>
<!-- ExhibitionsComponent&#45;&gt;AboutRoutingModule -->
<g id="edge8" class="edge">
<title>ExhibitionsComponent&#45;&gt;AboutRoutingModule</title>
<path fill="none" stroke="#000000" d="M598,-122.0091C598,-138.0494 598,-159 598,-159 598,-159 857.17,-159 857.17,-159"/>
<polygon fill="#000000" stroke="#000000" points="857.1701,-162.5001 867.17,-159 857.17,-155.5001 857.1701,-162.5001"/>
</g>
<!-- CollectionsComponent -->
<g id="node9" class="node">
<title>CollectionsComponent</title>
<polygon fill="#ffffb3" stroke="#000000" points="507.6052,-122 362.3948,-122 362.3948,-86 507.6052,-86 507.6052,-122"/>
<text text-anchor="middle" x="435" y="-99.8" font-family="Times,serif" font-size="14.00" fill="#000000">CollectionsComponent</text>
</g>
<!-- CollectionsComponent&#45;&gt;AboutRoutingModule -->
<g id="edge9" class="edge">
<title>CollectionsComponent&#45;&gt;AboutRoutingModule</title>
<path fill="none" stroke="#000000" d="M435,-122.2667C435,-140.5552 435,-166 435,-166 435,-166 857.1991,-166 857.1991,-166"/>
<polygon fill="#000000" stroke="#000000" points="857.1991,-169.5001 867.1991,-166 857.199,-162.5001 857.1991,-169.5001"/>
</g>
<!-- InstitutionsComponent -->
<g id="node10" class="node">
<title>InstitutionsComponent</title>
<polygon fill="#ffffb3" stroke="#000000" points="344.3356,-122 199.6644,-122 199.6644,-86 344.3356,-86 344.3356,-122"/>
<text text-anchor="middle" x="272" y="-99.8" font-family="Times,serif" font-size="14.00" fill="#000000">InstitutionsComponent</text>
</g>
<!-- InstitutionsComponent&#45;&gt;AboutRoutingModule -->
<g id="edge10" class="edge">
<title>InstitutionsComponent&#45;&gt;AboutRoutingModule</title>
<path fill="none" stroke="#000000" d="M272,-122.1289C272,-142.5724 272,-173 272,-173 272,-173 857.0902,-173 857.0902,-173"/>
<polygon fill="#000000" stroke="#000000" points="857.0903,-176.5001 867.0902,-173 857.0902,-169.5001 857.0903,-176.5001"/>
</g>
<!-- IndexContentComponent -->
<g id="node11" class="node">
<title>IndexContentComponent</title>
<polygon fill="#ffffb3" stroke="#000000" points="181.5407,-122 24.4593,-122 24.4593,-86 181.5407,-86 181.5407,-122"/>
<text text-anchor="middle" x="103" y="-99.8" font-family="Times,serif" font-size="14.00" fill="#000000">IndexContentComponent</text>
</g>
<!-- IndexContentComponent&#45;&gt;AboutRoutingModule -->
<g id="edge11" class="edge">
<title>IndexContentComponent&#45;&gt;AboutRoutingModule</title>
<path fill="none" stroke="#000000" d="M103,-122.0109C103,-144.4852 103,-180 103,-180 103,-180 857.3281,-180 857.3281,-180"/>
<polygon fill="#000000" stroke="#000000" points="857.3281,-183.5001 867.3281,-180 857.3281,-176.5001 857.3281,-183.5001"/>
</g>
</g>
</svg>
